<svg id="Group_4" data-name="Group 4" xmlns="http://www.w3.org/2000/svg" width="28.421" height="28.21" viewBox="0 0 28.421 28.21">
  <path id="Path_3" data-name="Path 3" d="M409.661,123.566l-13.014-1.978a2.094,2.094,0,0,0-1.682.462,2.115,2.115,0,0,0-.735,1.586v24.952a1.187,1.187,0,0,0,1.185,1.183h3.848v-6.216a2.067,2.067,0,0,1,2.073-2.073h2.96a2.067,2.067,0,0,1,2.073,2.073v6.216H411.4V125.614A2.07,2.07,0,0,0,409.661,123.566Zm-8.917,15.253h-1.777a.888.888,0,0,1,0-1.777h1.777a.888.888,0,0,1,0,1.777Zm0-3.553h-1.777a.888.888,0,0,1,0-1.777h1.777a.888.888,0,0,1,0,1.777Zm0-3.552h-1.777a.888.888,0,0,1,0-1.777h1.777a.888.888,0,0,1,0,1.777Zm0-3.553h-1.777a.888.888,0,0,1,0-1.777h1.777a.888.888,0,0,1,0,1.777Zm5.92,10.659h-1.775a.888.888,0,1,1,0-1.777h1.775a.888.888,0,1,1,0,1.777Zm0-3.553h-1.775a.888.888,0,1,1,0-1.777h1.775a.888.888,0,1,1,0,1.777Zm0-3.552h-1.775a.888.888,0,1,1,0-1.777h1.775a.888.888,0,1,1,0,1.777Zm0-3.553h-1.775a.888.888,0,1,1,0-1.777h1.775a.888.888,0,1,1,0,1.777Z" transform="translate(-394.23 -121.562)" fill="#fff"/>
  <path id="Path_4" data-name="Path 4" d="M413.706,129.863l-8.432-1.765v17.347h7.993a2.074,2.074,0,0,0,2.073-2.073V131.887A2.062,2.062,0,0,0,413.706,129.863Zm-2.807,12.03h-1.777a.888.888,0,0,1,0-1.777H410.9a.888.888,0,1,1,0,1.777Zm0-3.553h-1.777a.888.888,0,0,1,0-1.777H410.9a.888.888,0,1,1,0,1.777Zm0-3.552h-1.777a.888.888,0,0,1,0-1.777H410.9a.888.888,0,1,1,0,1.777Z" transform="translate(-386.918 -117.235)" fill="#fff"/>
</svg>
