<svg id="Group_10" data-name="Group 10" xmlns="http://www.w3.org/2000/svg" width="14.006" height="13.916" viewBox="0 0 14.006 13.916">
  <g id="Group_9" data-name="Group 9">
    <path id="Path_24" data-name="Path 24" d="M460.524,78.185V76.408a1.3,1.3,0,0,0-1.23-1.356h-.165v1.657a.412.412,0,1,1-.821,0V74.3a.412.412,0,1,0-.821,0v.753h-2.736v1.657a.412.412,0,1,1-.819,0V74.3a.412.412,0,1,0-.821,0v.753h-2.736v1.657a.412.412,0,1,1-.821,0V74.3a.412.412,0,1,0-.821,0v.753h-.984a1.3,1.3,0,0,0-1.232,1.356v1.777Z" transform="translate(-446.518 -73.847)" fill="#178677"/>
    <path id="Path_25" data-name="Path 25" d="M446.518,77v7.318a1.3,1.3,0,0,0,1.232,1.356h11.545a1.3,1.3,0,0,0,1.23-1.356V77Zm3.939,6.264h-.874a.454.454,0,0,1,0-.9h.874a.454.454,0,0,1,0,.9Zm0-1.928h-.874a.453.453,0,0,1,0-.9h.874a.453.453,0,0,1,0,.9Zm0-1.926h-.874a.454.454,0,0,1,0-.9h.874a.454.454,0,0,1,0,.9Zm3.5,3.854h-.876a.454.454,0,0,1,0-.9h.876a.454.454,0,0,1,0,.9Zm0-1.928h-.876a.453.453,0,0,1,0-.9h.876a.453.453,0,0,1,0,.9Zm0-1.926h-.876a.454.454,0,0,1,0-.9h.876a.454.454,0,0,1,0,.9Zm3.5,3.854h-.876a.454.454,0,0,1,0-.9h.876a.454.454,0,0,1,0,.9Zm0-1.928h-.876a.453.453,0,0,1,0-.9h.876a.453.453,0,0,1,0,.9Zm0-1.926h-.876a.454.454,0,0,1,0-.9h.876a.454.454,0,0,1,0,.9Z" transform="translate(-446.518 -71.759)" fill="#178677"/>
  </g>
</svg>
