<svg id="Group_2" data-name="Group 2" xmlns="http://www.w3.org/2000/svg" width="19.114" height="25.672" viewBox="0 0 19.114 25.672">
  <g id="Group_1" data-name="Group 1">
    <path id="Path_1" data-name="Path 1" d="M49.52,121.789H47.642a.525.525,0,0,1-.494-.4,1.913,1.913,0,0,0-1.945-1.549,1.944,1.944,0,0,0-1.945,1.582.492.492,0,0,1-.494.362H40.952v3.3H49.52Z" transform="translate(-35.68 -119.843)" fill="#fff"/>
    <path id="Path_2" data-name="Path 2" d="M56.894,142.438V123.557a1.351,1.351,0,0,0-1.348-1.355c-.035,0-.068,0-.1,0H52.609v1.68c0,.264-.165.627-.429.627H42.46c-.264,0-.4-.362-.4-.627v-1.68H39.231a1.351,1.351,0,0,0-1.448,1.248c0,.035,0,.068,0,.1v18.881a1.483,1.483,0,0,0,1.449,1.516H55.443a1.484,1.484,0,0,0,1.451-1.514Zm-12.226-4.35-2.571,2.4a.455.455,0,0,1-.329.166.528.528,0,0,1-.362-.166l-1.351-1.383a.5.5,0,0,1,.725-.693l.989,1.055,2.24-2.109a.494.494,0,0,1,.66.725Zm0-5.272h0l-2.571,2.4a.459.459,0,0,1-.329.165.527.527,0,0,1-.362-.165l-1.351-1.384a.5.5,0,0,1,.725-.691l.989,1.055,2.24-2.109a.494.494,0,0,1,.66.725Zm0-5.272-2.571,2.4a.459.459,0,0,1-.329.165.526.526,0,0,1-.362-.165l-1.351-1.384a.5.5,0,0,1,.725-.691l.989,1.054,2.24-2.109a.5.5,0,0,1,.66.726ZM54.256,140H46.677a.494.494,0,0,1,0-.989h7.579a.494.494,0,1,1,0,.989Zm0-5.272H46.677a.494.494,0,0,1,0-.989h7.579a.494.494,0,1,1,0,.989Zm0-5.272H46.677a.494.494,0,0,1,0-.989h7.579a.494.494,0,1,1,0,.989Z" transform="translate(-37.78 -118.282)" fill="#fff"/>
  </g>
</svg>
