<svg xmlns="http://www.w3.org/2000/svg" width="31.964" height="31.964" viewBox="0 0 31.964 31.964">
  <g id="Group_18244" data-name="Group 18244" transform="translate(0.75 0.75)">
    <g id="Group_18234" data-name="Group 18234" transform="translate(0 0)">
      <g id="Group_18161" data-name="Group 18161">
        <path id="Path_13353" data-name="Path 13353" d="M300.19,276.652a15.232,15.232,0,1,1,15.231-15.231A15.232,15.232,0,0,1,300.19,276.652Z" transform="translate(-284.957 -246.188)" fill="none" stroke="#368c0e" stroke-width="1.5"/>
      </g>
      <g id="Group_18164" data-name="Group 18164" transform="translate(7.519 17.505)">
        <path id="Path_13359" data-name="Path 13359" d="M297.195,262.177a8.2,8.2,0,0,1-7.714-5.452l2.85.647c.577,1.632,3.131,2.729,4.861,2.729s4.288-1.1,4.862-2.729l2.854-.651A8.2,8.2,0,0,1,297.195,262.177Z" transform="translate(-289.481 -256.72)" fill="#368c0e"/>
      </g>
      <g id="Group_18165" data-name="Group 18165" transform="translate(9.419 9.419)">
        <path id="Path_13360" data-name="Path 13360" d="M290.624,251.855h4.09v4.09h-4.09Z" transform="translate(-290.624 -251.855)" fill="#368c0e"/>
      </g>
      <g id="Group_18166" data-name="Group 18166" transform="translate(16.955 9.419)">
        <path id="Path_13361" data-name="Path 13361" d="M295.158,251.855h4.09v4.09h-4.09Z" transform="translate(-295.158 -251.855)" fill="#368c0e"/>
      </g>
    </g>
  </g>
</svg>
