<svg xmlns="http://www.w3.org/2000/svg" width="35.432" height="35.414" viewBox="0 0 35.432 35.414">
  <g id="Group_18243" data-name="Group 18243" transform="translate(0.19)">
    <g id="bomb">
      <g id="Group_18215" data-name="Group 18215">
        <path id="Path_13483" data-name="Path 13483" d="M289.552,412.309a11.041,11.041,0,0,0-3.073,2.882A.689.689,0,1,0,287.6,416a9.632,9.632,0,0,1,2.689-2.523.689.689,0,0,0-.733-1.167Z" transform="translate(-281.647 -400.16)" fill="#cd3120"/>
        <path id="Path_13484" data-name="Path 13484" d="M301.269,404.957a.688.688,0,0,0-.688.688h0v2.064a.688.688,0,1,0,1.376,0v-2.064a.687.687,0,0,0-.688-.688Z" transform="translate(-272.224 -404.957)" fill="#cd3120"/>
        <path id="Path_13485" data-name="Path 13485" d="M299.9,408.562a.688.688,0,0,0,.972-.972l-1.461-1.461a.688.688,0,1,0-.972.974Z" transform="translate(-273.775 -404.315)" fill="#cd3120"/>
        <path id="Path_13486" data-name="Path 13486" d="M303.22,409.935a.688.688,0,0,0-.972.972l1.459,1.461a.689.689,0,0,0,.974-.974h0Z" transform="translate(-271.255 -401.795)" fill="#cd3120"/>
        <path id="Path_13487" data-name="Path 13487" d="M305.407,408.269h-2.066a.689.689,0,0,0,0,1.378h2.069a.689.689,0,0,0,0-1.378Z" transform="translate(-270.854 -402.764)" fill="#cd3120"/>
        <path id="Path_13488" data-name="Path 13488" d="M302.734,408.764a.681.681,0,0,0,.485-.2l1.461-1.459a.688.688,0,0,0-.972-.974h0l-1.461,1.461a.688.688,0,0,0,.487,1.175Z" transform="translate(-271.256 -404.315)" fill="#cd3120"/>
        <path id="Path_13489" data-name="Path 13489" d="M312.565,408.275a2.437,2.437,0,0,0-2.7,2.144c0,.05-.01.1-.012.151-.175.778-.306,1.356-1.2,1.685l-1.587-1.587a2.074,2.074,0,0,0-2.92,0l-1.08,1.079a13.762,13.762,0,1,0,6.7,6.708l1.079-1.08a2.075,2.075,0,0,0,0-2.92l-1.165-1.165a3.319,3.319,0,0,0,1.511-2.422c.206-.907.274-1.22,1.366-1.22a.688.688,0,0,0,0-1.376h0Zm-2.679,8.126-1.426,1.426a.688.688,0,0,0-.13.8A12.414,12.414,0,1,1,302.9,413.2a.687.687,0,0,0,.8-.128l1.426-1.426a.691.691,0,0,1,.974,0l3.785,3.785A.687.687,0,0,1,309.885,416.4Z" transform="translate(-283.52 -402.771)" fill="#cd3120" stroke="#ff0001" stroke-width="0.3"/>
        <path id="Path_13490" data-name="Path 13490" d="M290.48,411.46h0a.688.688,0,1,0,.688.688.688.688,0,0,0-.688-.688Z" transform="translate(-279.367 -400.652)" fill="#cd3120"/>
      </g>
    </g>
  </g>
</svg>
