<svg xmlns="http://www.w3.org/2000/svg" width="31.964" height="31.965" viewBox="0 0 31.964 31.965">
  <g id="Group_18244" data-name="Group 18244" transform="translate(0.75 0.75)">
    <g id="Group_18234" data-name="Group 18234" transform="translate(0 0)">
      <g id="Group_18161" data-name="Group 18161">
        <path id="Path_13353" data-name="Path 13353" d="M300.19,330.5a15.233,15.233,0,1,1,15.231-15.233A15.232,15.232,0,0,1,300.19,330.5Z" transform="translate(-284.957 -300.032)" fill="none" stroke="#aab6c6" stroke-width="1.5"/>
      </g>
      <g id="Group_18164" data-name="Group 18164" transform="translate(7.519 17.505)">
        <path id="Path_13359" data-name="Path 13359" d="M297.195,316.021a8.193,8.193,0,0,1-7.714-5.452l2.85.648c.577,1.63,3.131,2.727,4.861,2.727s4.288-1.1,4.862-2.727l2.854-.653A8.194,8.194,0,0,1,297.195,316.021Z" transform="translate(304.908 316.021) rotate(180)" fill="#aab6c6" stroke="#aab6c6" stroke-width="1"/>
      </g>
      <g id="Group_18165" data-name="Group 18165" transform="translate(9.419 9.421)">
        <path id="Path_13360" data-name="Path 13360" d="M290.624,305.7h4.09v4.09h-4.09Z" transform="translate(-290.624 -305.7)" fill="#aab6c6" stroke="#aab6c6" stroke-width="1"/>
      </g>
      <g id="Group_18166" data-name="Group 18166" transform="translate(16.955 9.421)">
        <path id="Path_13361" data-name="Path 13361" d="M295.158,305.7h4.09v4.09h-4.09Z" transform="translate(-295.158 -305.7)" fill="#aab6c6" stroke="#aab6c6" stroke-width="1"/>
      </g>
    </g>
  </g>
</svg>
