<svg xmlns="http://www.w3.org/2000/svg" width="28.096" height="24.442" viewBox="0 0 28.096 24.442">
  <path id="Path_26" data-name="Path 26" d="M163.378,124.446a.64.64,0,0,0-.336-.367l-5.357-2.473a25.918,25.918,0,0,0-3.472-.914.618.618,0,0,0-.123-.012.63.63,0,0,0-.615.494,4.213,4.213,0,0,1-8.224,0,.628.628,0,0,0-.613-.494.617.617,0,0,0-.123.012,26.1,26.1,0,0,0-3.475.914l-5.353,2.473a.635.635,0,0,0-.3.864l2.325,4.589a.632.632,0,0,0,.565.347.64.64,0,0,0,.183-.027l2.583-.765v15.4a.636.636,0,0,0,.635.635h15.376a.636.636,0,0,0,.633-.635v-15.4l2.586.765a.624.624,0,0,0,.181.028.635.635,0,0,0,.565-.349l2.327-4.589A.646.646,0,0,0,163.378,124.446Z" transform="translate(-135.316 -120.68)" fill="#fff"/>
</svg>
