<svg xmlns="http://www.w3.org/2000/svg" width="53" height="53" viewBox="0 0 53 53">
  <g id="Group_18843" data-name="Group 18843" transform="translate(-503 -308)">
    <g id="Group_18835" data-name="Group 18835" transform="translate(-48 -5)">
      <rect id="Rectangle_9663" data-name="Rectangle 9663" width="53" height="53" rx="26.5" transform="translate(551 313)" fill="#188676" opacity="0.2"/>
      <rect id="Rectangle_9662" data-name="Rectangle 9662" width="43" height="43" rx="21.5" transform="translate(556 318)" fill="#188676"/>
    </g>
    <g id="Group_10280" data-name="Group 10280" transform="translate(231.236 -236)">
      <g id="history_1_" data-name="history (1)" transform="translate(284.764 560)">
        <g id="Group_10279" data-name="Group 10279" transform="translate(0 0)">
          <g id="Group_10278" data-name="Group 10278" transform="translate(0 0)">
            <path id="Path_10828" data-name="Path 10828" d="M130.827,375.691l-1.115.987a10.252,10.252,0,0,0,1.154,1.11l.943-1.152A8.592,8.592,0,0,1,130.827,375.691Z" transform="translate(-123.686 -359.984)" fill="#fff" stroke="#fff" stroke-width="0.5"/>
            <path id="Path_10829" data-name="Path 10829" d="M94.134,326.187l-1.366.586a9.9,9.9,0,0,0,.75,1.418l1.254-.8A8.529,8.529,0,0,1,94.134,326.187Z" transform="translate(-88.458 -312.78)" fill="#fff" stroke="#fff" stroke-width="0.5"/>
            <path id="Path_10830" data-name="Path 10830" d="M18.565,38.981A10.024,10.024,0,0,0,3.6,46.338L1.051,43.792,0,44.843l4.242,4.242,4.242-4.242L7.434,43.792l-2.3,2.3a8.54,8.54,0,1,1,4.111,8.971L8.5,56.344A10.035,10.035,0,0,0,18.565,38.981Z" transform="translate(0 -37.627)" fill="#fff" stroke="#fff" stroke-width="0.5"/>
            <path id="Path_10831" data-name="Path 10831" d="M267.312,109.627V117.8l3.271,2.453.892-1.189-2.676-2.007v-7.434Z" transform="translate(-254.893 -106.282)" fill="#fff" stroke="#fff" stroke-width="0.5"/>
          </g>
        </g>
      </g>
    </g>
  </g>
</svg>
