<svg xmlns="http://www.w3.org/2000/svg" width="59" height="59" viewBox="0 0 59 59">
  <g id="Group_19535" data-name="Group 19535" transform="translate(-476 -336)">
    <g id="Group_18713" data-name="Group 18713" transform="translate(476 336)" opacity="0.3">
      <path id="Path_13559" data-name="Path 13559" d="M579.919,285.828a29.5,29.5,0,1,1,29.5-29.5,29.5,29.5,0,0,1-29.5,29.5Z" transform="translate(-550.419 -226.828)" fill="#188676" opacity="0.52"/>
    </g>
    <g id="okay_" data-name="okay " transform="translate(480.459 340.459)">
      <path id="Path_13559-2" data-name="Path 13559" d="M575.459,276.909a25.041,25.041,0,1,1,25.04-25.041,25.041,25.041,0,0,1-25.04,25.041Z" transform="translate(-550.418 -226.828)" fill="none" stroke="#188676" stroke-width="2"/>
      <path id="Path_13572" data-name="Path 13572" d="M585.266,273.33a1.478,1.478,0,0,1-1.009-.4l-6.849-6.362a1.484,1.484,0,1,1,2.019-2.174l5.8,5.389,11.478-11.478a1.484,1.484,0,0,1,2.1,2.1L586.315,272.9A1.481,1.481,0,0,1,585.266,273.33Z" transform="translate(-563.385 -238.832)" fill="#188676"/>
    </g>
  </g>
</svg>
